<svg width="844" height="844" viewBox="0 0 844 844" fill="none" xmlns="http://www.w3.org/2000/svg">
<path d="M844 422C844 655.064 655.064 844 422 844C188.936 844 0 655.064 0 422C0 188.936 188.936 0 422 0C655.064 0 844 188.936 844 422Z" fill="white"/>
<path d="M323.93 333.836C323.93 414.259 269.821 479.455 203.075 479.455C136.329 479.455 82.2207 414.259 82.2207 333.836C82.2207 253.412 136.329 188.216 203.075 188.216C269.821 188.216 323.93 253.412 323.93 333.836Z" fill="black"/>
<path d="M758.807 364.545C758.807 444.968 704.699 510.164 637.953 510.164C571.207 510.164 517.099 444.968 517.099 364.545C517.099 284.121 571.207 218.925 637.953 218.925C704.699 218.925 758.807 284.121 758.807 364.545Z" fill="black"/>
</svg>
