<svg width="50" height="50" viewBox="0 0 50 50" fill="none" xmlns="http://www.w3.org/2000/svg">
<g clip-path="url(#clip0_42_2)">
<path fill-rule="evenodd" clip-rule="evenodd" d="M22.7918 5.1124C23.3777 4.52719 24.172 4.19849 25.0001 4.19849C25.8283 4.19849 26.6225 4.52719 27.2085 5.1124L33.1043 11.0041C33.3947 11.2943 33.6251 11.6389 33.7822 12.0181C33.9394 12.3974 34.0203 12.8039 34.0203 13.2145C34.0203 13.625 33.9394 14.0316 33.7822 14.4108C33.6251 14.7901 33.3947 15.1347 33.1043 15.4249L27.2085 21.3166C26.6225 21.9018 25.8283 22.2305 25.0001 22.2305C24.172 22.2305 23.3777 21.9018 22.7918 21.3166L16.896 15.4249C16.6056 15.1347 16.3752 14.7901 16.218 14.4108C16.0609 14.0316 15.98 13.625 15.98 13.2145C15.98 12.8039 16.0609 12.3974 16.218 12.0181C16.3752 11.6389 16.6056 11.2943 16.896 11.0041L22.7918 5.1124ZM25.0001 8.79574L20.5814 13.2145L25.0001 17.6332L29.4189 13.2166L25.0001 8.79574ZM34.5751 16.8978C34.8654 16.6074 35.2099 16.3771 35.5892 16.2199C35.9685 16.0627 36.375 15.9818 36.7856 15.9818C37.1961 15.9818 37.6026 16.0627 37.9819 16.2199C38.3612 16.3771 38.7058 16.6074 38.996 16.8978L44.8876 22.7895C45.178 23.0797 45.4084 23.4243 45.5656 23.8036C45.7227 24.1828 45.8036 24.5894 45.8036 24.9999C45.8036 25.4105 45.7227 25.817 45.5656 26.1963C45.4084 26.5755 45.178 26.9201 44.8876 27.2103L38.996 33.102C38.7058 33.3924 38.3612 33.6227 37.9819 33.7799C37.6026 33.9371 37.1961 34.018 36.7856 34.018C36.375 34.018 35.9685 33.9371 35.5892 33.7799C35.2099 33.6227 34.8654 33.3924 34.5751 33.102L28.6835 27.2103C28.3931 26.9201 28.1627 26.5755 28.0055 26.1963C27.8484 25.817 27.7675 25.4105 27.7675 24.9999C27.7675 24.5894 27.8484 24.1828 28.0055 23.8036C28.1627 23.4243 28.3931 23.0797 28.6835 22.7895L34.5751 16.8978ZM36.7835 20.5812L32.3668 24.9978L36.7835 29.4187L41.2064 24.9999L36.7835 20.5812ZM11.0064 16.8957C11.2966 16.6053 11.6412 16.375 12.0205 16.2178C12.3997 16.0606 12.8063 15.9797 13.2168 15.9797C13.6274 15.9797 14.0339 16.0606 14.4132 16.2178C14.7924 16.375 15.137 16.6053 15.4272 16.8957L21.3189 22.7874C21.6093 23.0776 21.8397 23.4222 21.9968 23.8015C22.154 24.1807 22.2349 24.5873 22.2349 24.9978C22.2349 25.4084 22.154 25.8149 21.9968 26.1942C21.8397 26.5734 21.6093 26.918 21.3189 27.2082L15.4272 33.0999C15.137 33.3903 14.7924 33.6207 14.4132 33.7778C14.0339 33.935 13.6274 34.0159 13.2168 34.0159C12.8063 34.0159 12.3997 33.935 12.0205 33.7778C11.6412 33.6207 11.2966 33.3903 11.0064 33.0999L5.11473 27.2082C4.82433 26.918 4.59397 26.5734 4.4368 26.1942C4.27963 25.8149 4.19873 25.4084 4.19873 24.9978C4.19873 24.5873 4.27963 24.1807 4.4368 23.8015C4.59397 23.4222 4.82433 23.0776 5.11473 22.7874L11.0064 16.8957ZM13.2168 20.5791L8.79806 24.9957L13.2168 29.4166L17.6335 24.9999L13.2168 20.5791ZM22.7918 28.6812C23.082 28.3908 23.4266 28.1604 23.8059 28.0032C24.1852 27.8461 24.5917 27.7652 25.0022 27.7652C25.4128 27.7652 25.8193 27.8461 26.1986 28.0032C26.5779 28.1604 26.9224 28.3908 27.2126 28.6812L33.1043 34.5728C33.6902 35.1588 34.0193 35.9536 34.0193 36.7822C34.0193 37.6108 33.6902 38.4055 33.1043 38.9916L27.2126 44.8853C26.9224 45.1757 26.5779 45.4061 26.1986 45.5632C25.8193 45.7204 25.4128 45.8013 25.0022 45.8013C24.5917 45.8013 24.1852 45.7204 23.8059 45.5632C23.4266 45.4061 23.082 45.1757 22.7918 44.8853L16.9001 38.9916C16.3149 38.4056 15.9862 37.6114 15.9862 36.7832C15.9862 35.9551 16.3149 35.1608 16.9001 34.5749L22.7918 28.6812ZM25.0001 32.3645L20.5814 36.7853L25.0001 41.2041L29.4189 36.7853L25.0001 32.3645Z" fill="white"/>
</g>
<defs>
<clipPath id="clip0_42_2">
<rect width="50" height="50" fill="white"/>
</clipPath>
</defs>
</svg>
