<svg width="38" height="42" viewBox="0 0 38 42" fill="none" xmlns="http://www.w3.org/2000/svg">
<path fill-rule="evenodd" clip-rule="evenodd" d="M2.69167 2.60841C0.25 5.048 0.25 8.97716 0.25 16.8334V25.1667C0.25 33.023 0.25 36.9522 2.69167 39.3917C5.13125 41.8334 9.06042 41.8334 16.9167 41.8334H21.0833C28.9396 41.8334 32.8687 41.8334 35.3083 39.3917C37.75 36.9522 37.75 33.023 37.75 25.1667V16.8334C37.75 8.97716 37.75 5.048 35.3083 2.60841C32.8687 0.166748 28.9396 0.166748 21.0833 0.166748H16.9167C9.06042 0.166748 5.13125 0.166748 2.69167 2.60841ZM10.6667 15.2709C10.2523 15.2709 9.85484 15.4355 9.56181 15.7286C9.26879 16.0216 9.10417 16.419 9.10417 16.8334C9.10417 17.2478 9.26879 17.6452 9.56181 17.9383C9.85484 18.2313 10.2523 18.3959 10.6667 18.3959H27.3333C27.7477 18.3959 28.1452 18.2313 28.4382 17.9383C28.7312 17.6452 28.8958 17.2478 28.8958 16.8334C28.8958 16.419 28.7312 16.0216 28.4382 15.7286C28.1452 15.4355 27.7477 15.2709 27.3333 15.2709H10.6667ZM10.6667 23.6042C10.2523 23.6042 9.85484 23.7689 9.56181 24.0619C9.26879 24.3549 9.10417 24.7523 9.10417 25.1667C9.10417 25.5811 9.26879 25.9786 9.56181 26.2716C9.85484 26.5646 10.2523 26.7292 10.6667 26.7292H21.0833C21.4977 26.7292 21.8952 26.5646 22.1882 26.2716C22.4812 25.9786 22.6458 25.5811 22.6458 25.1667C22.6458 24.7523 22.4812 24.3549 22.1882 24.0619C21.8952 23.7689 21.4977 23.6042 21.0833 23.6042H10.6667Z" fill="white"/>
</svg>
