<svg width="45" height="56" viewBox="0 0 45 56" fill="none" xmlns="http://www.w3.org/2000/svg">
<path d="M3 27.9995V44.6666C3 44.6666 3 53.0001 22.4449 53.0001C41.8898 53.0001 41.8898 44.6666 41.8898 44.6666V27.9995" stroke="white" stroke-width="5"/>
<path d="M3 11.3345V28.0015C3 28.0015 3 36.3351 22.4449 36.3351C41.8898 36.3351 41.8898 28.0015 41.8898 28.0015V11.3345" stroke="white" stroke-width="5"/>
<path d="M22.4449 3C41.8898 3 41.8898 11.3335 41.8898 11.3335C41.8898 11.3335 41.8898 19.6671 22.4449 19.6671C3 19.6671 3 11.3335 3 11.3335C3 11.3335 3 3 22.4449 3Z" stroke="white" stroke-width="5"/>
</svg>
