<svg width="37" height="44" viewBox="0 0 37 44" fill="none" xmlns="http://www.w3.org/2000/svg">
<path d="M18.4062 41.0625C21.4266 41.0625 23.875 38.6141 23.875 35.5938C23.875 32.5734 21.4266 30.125 18.4062 30.125C15.3859 30.125 12.9375 32.5734 12.9375 35.5938C12.9375 38.6141 15.3859 41.0625 18.4062 41.0625Z" stroke="white" stroke-width="4" stroke-linecap="round" stroke-linejoin="round"/>
<path d="M7.46875 12.9375C10.4891 12.9375 12.9375 10.4891 12.9375 7.46875C12.9375 4.44844 10.4891 2 7.46875 2C4.44844 2 2 4.44844 2 7.46875C2 10.4891 4.44844 12.9375 7.46875 12.9375Z" stroke="white" stroke-width="4" stroke-linecap="round" stroke-linejoin="round"/>
<path d="M29.3438 12.9375C32.3641 12.9375 34.8125 10.4891 34.8125 7.46875C34.8125 4.44844 32.3641 2 29.3438 2C26.3234 2 23.875 4.44844 23.875 7.46875C23.875 10.4891 26.3234 12.9375 29.3438 12.9375Z" stroke="white" stroke-width="4" stroke-linecap="round" stroke-linejoin="round"/>
<path d="M18.4062 23.875V28.5625M8.25 14.5C8.25 25.4375 28.5625 25.4375 28.5625 14.5" stroke="white" stroke-width="4" stroke-linecap="round" stroke-linejoin="round"/>
</svg>
