<svg width="38" height="38" viewBox="0 0 38 38" fill="none" xmlns="http://www.w3.org/2000/svg">
<path d="M3.16667 37.75L16.2917 24.625C17.3333 25.4583 18.5312 26.1181 19.8854 26.6042C21.2396 27.0903 22.6806 27.3333 24.2083 27.3333C27.9931 27.3333 31.1958 26.0222 33.8167 23.4C36.4375 20.7778 37.7486 17.575 37.75 13.7917C37.7514 10.0083 36.4403 6.80556 33.8167 4.18333C31.1931 1.56111 27.9903 0.25 24.2083 0.25C20.4264 0.25 17.2229 1.56111 14.5979 4.18333C11.9729 6.80556 10.6625 10.0083 10.6667 13.7917C10.6667 15.3194 10.9097 16.7604 11.3958 18.1146C11.8819 19.4687 12.5417 20.6667 13.375 21.7083L0.250001 34.8333L3.16667 37.75ZM24.2083 23.1667C21.6042 23.1667 19.3903 22.2556 17.5667 20.4333C15.7431 18.6111 14.8319 16.3972 14.8333 13.7917C14.8347 11.1861 15.7458 8.97292 17.5667 7.15208C19.3875 5.33125 21.6014 4.41944 24.2083 4.41667C26.8153 4.41389 29.0285 5.32569 30.8479 7.15208C32.6674 8.97847 33.5792 11.1917 33.5833 13.7917C33.5875 16.3917 32.6757 18.6056 30.8479 20.4333C29.0201 22.2611 26.8069 23.1722 24.2083 23.1667Z" fill="white"/>
</svg>
