<svg width="42" height="46" viewBox="0 0 42 46" fill="none" xmlns="http://www.w3.org/2000/svg">
<path d="M21.4578 2.16675H20.5412C19.4361 2.16675 18.3763 2.60573 17.5949 3.38714C16.8135 4.16854 16.3745 5.22835 16.3745 6.33341V6.70841C16.3738 7.43909 16.1809 8.15673 15.8152 8.78933C15.4496 9.42192 14.924 9.94724 14.2912 10.3126L13.3953 10.8334C12.7619 11.1991 12.0434 11.3916 11.312 11.3916C10.5806 11.3916 9.8621 11.1991 9.22868 10.8334L8.91618 10.6667C7.96007 10.1152 6.82418 9.96559 5.75785 10.2507C4.69153 10.5359 3.78191 11.2324 3.22868 12.1876L2.77035 12.9792C2.21881 13.9354 2.06919 15.0713 2.35432 16.1376C2.63946 17.2039 3.33605 18.1135 4.29118 18.6667L4.60368 18.8751C5.23342 19.2386 5.75706 19.7607 6.12254 20.3893C6.48802 21.0179 6.68263 21.7313 6.68702 22.4584V23.5209C6.68993 24.2551 6.49879 24.9771 6.13294 25.6136C5.76709 26.2502 5.23953 26.7788 4.60368 27.1459L4.29118 27.3334C3.33605 27.8866 2.63946 28.7963 2.35432 29.8626C2.06919 30.9289 2.21881 32.0648 2.77035 33.0209L3.22868 33.8126C3.78191 34.7677 4.69153 35.4643 5.75785 35.7494C6.82418 36.0346 7.96007 35.8849 8.91618 35.3334L9.22868 35.1667C9.8621 34.801 10.5806 34.6085 11.312 34.6085C12.0434 34.6085 12.7619 34.801 13.3953 35.1667L14.2912 35.6876C14.924 36.0529 15.4496 36.5782 15.8152 37.2108C16.1809 37.8434 16.3738 38.5611 16.3745 39.2917V39.6667C16.3745 40.7718 16.8135 41.8316 17.5949 42.613C18.3763 43.3944 19.4361 43.8334 20.5412 43.8334H21.4578C22.5629 43.8334 23.6227 43.3944 24.4041 42.613C25.1855 41.8316 25.6245 40.7718 25.6245 39.6667V39.2917C25.6253 38.5611 25.8181 37.8434 26.1838 37.2108C26.5495 36.5782 27.0751 36.0529 27.7078 35.6876L28.6037 35.1667C29.2371 34.801 29.9556 34.6085 30.687 34.6085C31.4184 34.6085 32.1369 34.801 32.7703 35.1667L33.0828 35.3334C34.039 35.8849 35.1749 36.0346 36.2412 35.7494C37.3075 35.4643 38.2171 34.7677 38.7703 33.8126L39.2287 33.0001C39.7802 32.044 39.9298 30.9081 39.6447 29.8417C39.3596 28.7754 38.663 27.8658 37.7078 27.3126L37.3953 27.1459C36.7595 26.7788 36.2319 26.2502 35.8661 25.6136C35.5002 24.9771 35.3091 24.2551 35.312 23.5209V22.4792C35.3091 21.745 35.5002 21.0231 35.8661 20.3865C36.2319 19.7499 36.7595 19.2213 37.3953 18.8542L37.7078 18.6667C38.663 18.1135 39.3596 17.2039 39.6447 16.1376C39.9298 15.0713 39.7802 13.9354 39.2287 12.9792L38.7703 12.1876C38.2171 11.2324 37.3075 10.5359 36.2412 10.2507C35.1749 9.96559 34.039 10.1152 33.0828 10.6667L32.7703 10.8334C32.1369 11.1991 31.4184 11.3916 30.687 11.3916C29.9556 11.3916 29.2371 11.1991 28.6037 10.8334L27.7078 10.3126C27.0751 9.94724 26.5495 9.42192 26.1838 8.78933C25.8181 8.15673 25.6253 7.43909 25.6245 6.70841V6.33341C25.6245 5.22835 25.1855 4.16854 24.4041 3.38714C23.6227 2.60573 22.5629 2.16675 21.4578 2.16675Z" stroke="white" stroke-width="4.16667" stroke-linecap="round" stroke-linejoin="round"/>
<path d="M21 29.25C24.4518 29.25 27.25 26.4518 27.25 23C27.25 19.5482 24.4518 16.75 21 16.75C17.5482 16.75 14.75 19.5482 14.75 23C14.75 26.4518 17.5482 29.25 21 29.25Z" stroke="white" stroke-width="4.16667" stroke-linecap="round" stroke-linejoin="round"/>
</svg>
