<svg width="42" height="42" viewBox="0 0 42 42" fill="none" xmlns="http://www.w3.org/2000/svg">
<path fill-rule="evenodd" clip-rule="evenodd" d="M21.0003 0.166748C9.49408 0.166748 0.166992 9.49383 0.166992 21.0001C0.166992 32.5063 9.49408 41.8334 21.0003 41.8334C32.5066 41.8334 41.8337 32.5063 41.8337 21.0001C41.8337 9.49383 32.5066 0.166748 21.0003 0.166748ZM13.7087 15.7917C13.7087 14.8342 13.8973 13.886 14.2637 13.0013C14.6301 12.1167 15.1672 11.3129 15.8443 10.6358C16.5214 9.95867 17.3253 9.42157 18.2099 9.05513C19.0946 8.68869 20.0428 8.50008 21.0003 8.50008C21.9579 8.50008 22.9061 8.68869 23.7907 9.05513C24.6754 9.42157 25.4792 9.95867 26.1563 10.6358C26.8334 11.3129 27.3705 12.1167 27.7369 13.0013C28.1034 13.886 28.292 14.8342 28.292 15.7917C28.292 17.7256 27.5238 19.5803 26.1563 20.9477C24.7889 22.3152 22.9342 23.0834 21.0003 23.0834C19.0665 23.0834 17.2118 22.3152 15.8443 20.9477C14.4769 19.5803 13.7087 17.7256 13.7087 15.7917ZM34.0378 31.3834C32.4783 33.3451 30.4957 34.9292 28.2382 36.0172C25.9806 37.1052 23.5064 37.6691 21.0003 37.6667C18.4943 37.6691 16.02 37.1052 13.7625 36.0172C11.5049 34.9292 9.52233 33.3451 7.96283 31.3834C11.3399 28.9605 15.9482 27.2501 21.0003 27.2501C26.0524 27.2501 30.6607 28.9605 34.0378 31.3834Z" fill="white"/>
</svg>
